<svg id="Layer_1" data-name="Layer 1" xmlns="http://www.w3.org/2000/svg" viewBox="0 0 64.91 69.61"><path d="M55.91,38.51l-14.5,13.4-11.8-6.6-6-10.5-1.4-6.6a15.66,15.66,0,0,1,7.9-1.9,15.68,15.68,0,0,1,12,5.4l14.5-13.5-6.4-11H32.91l-9.6.7L8.81,21.41c-6,5.6-8.9,12.3-8.8,20-.2,7.8,2.8,14.5,8.8,20a30.06,30.06,0,0,0,21.4,8.2,30.89,30.89,0,0,0,15.2-3.8,21.56,21.56,0,0,0,3.8-2.7l14.5-13.4Z" fill="#fff"/><path d="M55.91,38.51a15.26,15.26,0,0,1-11.2,4.7,15.6,15.6,0,0,1-11-4.1,15.09,15.09,0,0,1-4.2-11c0-4.6,1.4-8.2,4.3-11a15.09,15.09,0,0,1,11-4.2,15.68,15.68,0,0,1,12,5.4l8.1-10.9A24.74,24.74,0,0,0,60,3.81,29.48,29.48,0,0,0,44.91,0a29.14,29.14,0,0,0-21.4,8.1c-6,5.6-8.9,12.3-8.8,20-.2,7.8,2.8,14.5,8.8,20a30.06,30.06,0,0,0,21.4,8.2,30.89,30.89,0,0,0,15.2-3.8,21.56,21.56,0,0,0,3.8-2.7Z" fill="#ef3b24"/></svg>