<svg xmlns="http://www.w3.org/2000/svg" viewBox="0 0 110.61 26.3"><path d="M21.31,16.5A8,8,0,0,1,24,10.4a8.81,8.81,0,0,1,6.6-2.5,9.55,9.55,0,0,1,6.6,2.5,7.86,7.86,0,0,1,2.7,6.1,8,8,0,0,1-2.7,6.1,8.81,8.81,0,0,1-6.6,2.5A9.55,9.55,0,0,1,24,22.6,7.9,7.9,0,0,1,21.31,16.5ZM33,19a3.66,3.66,0,0,0,.9-2.5A3.66,3.66,0,0,0,33,14a2.9,2.9,0,0,0-2.3-1,3,3,0,0,0-2.4,1,3.49,3.49,0,0,0-.9,2.5,3.49,3.49,0,0,0,.9,2.5,3.24,3.24,0,0,0,2.4.9A2.54,2.54,0,0,0,33,19Z" fill="#FFF"/><path d="M42,16.5a8,8,0,0,1,2.7-6.1,8.81,8.81,0,0,1,6.6-2.5,9.55,9.55,0,0,1,6.6,2.5,7.86,7.86,0,0,1,2.7,6.1,8,8,0,0,1-2.7,6.1,8.81,8.81,0,0,1-6.6,2.5,9.55,9.55,0,0,1-6.6-2.5A7.29,7.29,0,0,1,42,16.5ZM53.61,19a3.66,3.66,0,0,0,.9-2.5,3.66,3.66,0,0,0-.9-2.5,2.9,2.9,0,0,0-2.3-1,3,3,0,0,0-2.4,1,3.49,3.49,0,0,0-.9,2.5,3.49,3.49,0,0,0,.9,2.5,3.24,3.24,0,0,0,2.4.9A2.54,2.54,0,0,0,53.61,19Z" fill="#FFF"/><path d="M81.81,24.8h-6.4l-6.1-8.7v8.7h-5.9V0h5.9V15l5.3-6.7h6.8l-5.9,7.4Z" fill="#FFF"/><path d="M84.11,24.8V3H90V24.8Z" fill="#FFF"/><path d="M110.61,14.6V24.8h-5.9V15.4a2.55,2.55,0,0,0-4.3-1.8,2.27,2.27,0,0,0-.7,1.8v9.4h-5.9V8.3h5.3V9.7a6.81,6.81,0,0,1,4.8-1.8,6.1,6.1,0,0,1,4.7,1.8A6.14,6.14,0,0,1,110.61,14.6Z" fill="#FFF"/><path d="M16.71,19.1a6.19,6.19,0,0,1-4.5,1.9,6.2,6.2,0,0,1-4.4-1.7,6,6,0,0,1-1.7-4.4,6,6,0,0,1,1.7-4.4,6,6,0,0,1,4.4-1.7A6.06,6.06,0,0,1,17,11l3.2-4.4a17.34,17.34,0,0,0-2-1.5,12.26,12.26,0,0,0-6.1-1.5,11.52,11.52,0,0,0-8.6,3.3A10.15,10.15,0,0,0,0,15a10.08,10.08,0,0,0,3.5,8,12.35,12.35,0,0,0,8.6,3.3,12.26,12.26,0,0,0,6.1-1.5,5.83,5.83,0,0,0,1.5-1.1Z" fill="#FFF"/></svg>