<svg xmlns="http://www.w3.org/2000/svg" xmlns:xlink="http://www.w3.org/1999/xlink" version="1.1" x="0px" y="0px" viewBox="-55 147 500 625" style="enable-background:new -55 147 500 500;" xml:space="preserve"><path d="M195,147C57.1,147-55,259.1-55,397S57.1,647,195,647s250-112.1,250-250S332.9,147,195,147z M210.8,614.9v-38.5  c17-8.2,41.5-23,41.5-39.9c0-25.8-25.6-11.4-57.3-11.4c-31.6,0-57.3-14.3-57.3,11.4c0,16.9,24.6,31.7,41.5,39.9v38.5  c-94.9-6.8-173.3-74.5-196-164.2c5.8,2,12.1,3.2,18.6,3.2c31.3,0,56.8-25.5,56.8-56.8l0,0V397c-0.4-38.3,17.3-112.1,44.8-136.1  c6.6-5.7,7.2-15.7,1.5-22.2c-5.7-6.6-15.7-7.2-22.2-1.5c-36.4,31.7-56,114.5-55.6,159.8c0,0.1,0,0.1,0,0.2c0,14-11.4,25.3-25.3,25.3  S-23.5,411-23.5,397c0-120.5,98-218.5,218.5-218.5s218.5,98,218.5,218.5c0,14-11.4,25.3-25.3,25.3c-14,0-25.3-11.4-25.3-25.3l0,0  c0.4-45.3-19.2-128.2-55.7-159.9c-6.6-5.7-16.5-5-22.2,1.5c-5.7,6.6-5,16.5,1.5,22.2c27.5,24,45.2,97.8,44.8,136.1v0.1  c0,0,0,0,0,0.1c0,31.3,25.5,56.8,56.8,56.8c6.5,0,12.8-1.1,18.6-3.2C384.1,540.4,305.7,608.1,210.8,614.9z"/><path d="M112.6,388.9c-5.9,0-11.5,2.4-16.2,6.5c1-0.2,2-0.3,3.1-0.3c7.9,0,14.3,6.4,14.3,14.3s-6.4,14.3-14.3,14.3  c-7.2,0-13.1-5.3-14.1-12.2c-3,7.2-4.7,15.6-4.7,24.7c0,26.1,14.3,47.3,32,47.3s32-21.2,32-47.3  C144.6,410.1,130.3,388.9,112.6,388.9z"/><path d="M277.4,388.9c-5.9,0-11.5,2.4-16.2,6.5c1-0.2,2-0.3,3.1-0.3c7.9,0,14.3,6.4,14.3,14.3s-6.4,14.3-14.3,14.3  c-7.2,0-13.1-5.3-14.1-12.2c-3,7.2-4.7,15.6-4.7,24.7c0,26.1,14.3,47.3,32,47.3s32-21.2,32-47.3  C309.4,410.1,295.1,388.9,277.4,388.9z"/></svg>
